<svg xmlns="http://www.w3.org/2000/svg" viewBox="0 0 64 64">
  <defs>
    <linearGradient id="bg" x1="0" y1="0" x2="1" y2="1">
      <stop offset="0%" stop-color="#0f172a"/>
      <stop offset="100%" stop-color="#1e293b"/>
    </linearGradient>
    <linearGradient id="shield" x1="0" y1="0" x2="1" y2="1">
      <stop offset="0%" stop-color="#38bdf8"/>
      <stop offset="100%" stop-color="#2563eb"/>
    </linearGradient>
  </defs>

  <rect x="4" y="4" width="56" height="56" rx="14" fill="url(#bg)"/>

  <path
    d="M32 12
       L47 18
       V29
       C47 39 40.5 47.5 32 52
       C23.5 47.5 17 39 17 29
       V18
       Z"
    fill="url(#shield)"
  />

  <rect x="25" y="27" width="14" height="10" rx="3" fill="white"/>
  <path
    d="M28 27v-3a4 4 0 0 1 8 0v3"
    fill="none"
    stroke="white"
    stroke-width="3"
    stroke-linecap="round"
  />
  <circle cx="32" cy="32" r="1.8" fill="#2563eb"/>
  <rect x="31" y="33.5" width="2" height="4.5" rx="1" fill="#2563eb"/>

  <rect x="13" y="45" width="14" height="3" rx="1.5" fill="#38bdf8" opacity="0.9"/>
</svg>
